<?xml version="1.0" standalone="no"?>
<!DOCTYPE svg PUBLIC "-//W3C//DTD SVG 20010904//EN"
 "http://www.w3.org/TR/2001/REC-SVG-20010904/DTD/svg10.dtd">
<svg version="1.0" xmlns="http://www.w3.org/2000/svg"
 width="410.000000pt" height="410.000000pt" viewBox="0 0 410.000000 410.000000"
 preserveAspectRatio="xMidYMid meet">
<metadata>
Created by potrace 1.11, written by Peter Selinger 2001-2013
</metadata>
<g transform="translate(0.000000,410.000000) scale(0.100000,-0.100000)"
fill="#000000" stroke="none">
<path d="M585 3021 c-3 -10 -5 -23 -4 -27 1 -5 0 -11 -1 -14 -6 -16 -5 -50 2
-50 4 0 8 -6 8 -13 0 -18 29 -77 49 -100 13 -16 13 -20 1 -28 -11 -8 -9 -9 9
-4 19 6 23 4 18 -8 -4 -10 -1 -14 6 -12 11 5 87 -59 87 -72 0 -4 -10 3 -22 15
-13 11 -25 20 -28 19 -8 -2 -92 58 -140 102 -25 22 -49 41 -53 41 -5 0 -5 5
-2 10 3 6 -1 10 -9 10 -9 0 -16 5 -16 10 0 6 -7 10 -15 10 -8 0 -15 5 -15 10
0 6 -7 10 -15 10 -8 0 -15 5 -15 10 0 6 -7 10 -16 10 -8 0 -13 4 -10 9 5 8
-15 21 -32 21 -4 0 -7 -15 -7 -34 0 -19 3 -32 7 -30 4 3 18 -7 30 -22 13 -15
30 -33 38 -42 8 -8 15 -21 16 -28 3 -17 -20 -18 -34 -1 -6 6 -25 12 -44 12
-18 -1 -36 4 -40 10 -4 5 -11 10 -15 10 -4 1 -18 6 -30 13 -13 7 -23 9 -24 5
0 -4 -2 -21 -4 -37 -4 -27 -3 -27 11 -10 9 11 13 14 10 7 -4 -6 -2 -14 4 -18
6 -4 7 -11 4 -17 -4 -6 1 -8 14 -4 12 4 23 2 28 -5 4 -7 3 -9 -4 -5 -6 3 -14
1 -18 -6 -4 -7 -4 -10 1 -6 4 4 14 3 22 -4 8 -6 13 -7 12 -2 -6 35 43 43 75
12 9 -10 23 -15 31 -12 8 4 15 1 15 -5 0 -6 7 -11 16 -11 9 0 12 -5 8 -12 -5
-7 -2 -9 8 -5 22 8 30 -3 16 -22 -10 -13 -10 -14 2 -3 18 15 44 16 34 0 -5 -8
-2 -9 10 -5 13 5 17 3 13 -6 -3 -8 1 -14 9 -14 7 0 11 4 8 9 -3 4 2 5 11 2 8
-4 20 -14 25 -24 7 -13 5 -17 -8 -17 -9 0 -20 5 -24 11 -5 7 -8 6 -8 -4 0 -13
-1 -13 -10 0 -7 11 -10 11 -10 2 0 -7 -4 -10 -10 -7 -5 3 -10 1 -10 -4 0 -6
-5 -11 -11 -11 -5 0 -7 6 -3 13 5 8 2 8 -9 -2 -15 -12 -17 -11 -18 5 0 11 -3
14 -5 8 -4 -9 -13 -8 -35 3 -16 8 -36 12 -44 9 -8 -3 -15 -2 -15 3 0 8 -56 25
-72 22 -5 0 -8 4 -8 10 0 5 -4 7 -10 4 -6 -3 -10 -1 -10 4 0 6 -9 11 -19 11
-11 0 -21 4 -23 10 -2 5 -9 6 -16 1 -11 -7 -10 -11 3 -24 8 -9 16 -19 15 -22
-1 -20 2 -25 15 -25 9 0 20 -11 25 -24 7 -18 14 -22 34 -19 15 3 26 1 26 -6 0
-6 7 -11 16 -11 9 0 12 -5 8 -12 -5 -8 0 -7 11 2 17 14 18 13 12 -3 -4 -10 -3
-16 2 -13 16 10 33 -23 26 -51 -5 -21 -8 -24 -16 -12 -5 8 -9 9 -9 2 0 -13
-38 -29 -55 -24 -5 2 -28 5 -50 7 -22 2 -57 5 -77 7 -45 5 -63 -5 -63 -37 -1
-21 2 -23 14 -13 12 10 13 9 2 -10 -10 -19 -9 -22 4 -17 8 4 15 1 15 -6 0 -6
5 -8 12 -4 8 5 9 2 5 -10 -4 -10 -3 -15 3 -11 18 11 32 -6 18 -22 -12 -15 -11
-15 9 -2 20 12 24 11 38 -6 12 -16 14 -17 9 -2 -8 21 0 22 20 1 9 -8 16 -11
16 -5 0 6 5 11 11 11 5 0 7 -6 3 -12 -6 -10 -4 -10 7 -2 19 14 143 11 162 -4
12 -10 17 -10 23 -1 4 8 3 9 -4 5 -7 -4 -12 -2 -12 3 0 14 13 14 28 -1 7 -7
12 -8 12 -2 0 5 24 9 54 9 35 0 52 -4 49 -11 -2 -6 -15 -10 -29 -8 -13 1 -24
-3 -24 -9 0 -8 -3 -7 -9 2 -6 10 -13 10 -28 2 -11 -5 -23 -7 -27 -3 -4 3 -4
-2 0 -12 5 -13 4 -17 -4 -12 -6 3 -13 2 -17 -4 -4 -6 -11 -8 -16 -5 -5 4 -9 1
-9 -4 0 -6 -5 -11 -11 -11 -5 0 -7 6 -3 13 5 8 2 8 -9 -2 -9 -7 -17 -10 -17
-5 0 5 -5 2 -10 -6 -5 -8 -10 -10 -10 -4 0 12 -64 13 -76 1 -4 -4 -13 -2 -21
4 -7 6 -13 8 -13 4 0 -4 -12 0 -26 10 -15 10 -23 12 -19 4 6 -9 3 -11 -9 -6
-10 4 -26 2 -37 -4 -16 -8 -18 -13 -8 -25 8 -10 8 -14 0 -14 -6 0 -11 -5 -11
-10 0 -6 3 -9 8 -9 20 3 32 -3 32 -17 0 -8 4 -12 10 -9 5 3 10 1 10 -4 0 -6
-5 -11 -12 -11 -6 0 -8 -3 -5 -6 4 -4 13 -1 22 6 11 9 15 9 15 1 0 -7 5 -9 10
-6 6 3 10 -1 10 -10 0 -9 -4 -14 -9 -10 -5 3 -13 1 -16 -5 -4 -6 -1 -9 7 -8 7
2 12 -5 12 -14 -1 -10 1 -17 5 -16 3 0 8 -1 11 -2 21 -8 41 -6 47 3 3 7 3 9
-2 5 -12 -12 -35 11 -28 29 5 12 7 12 14 1 7 -10 9 -10 9 0 0 6 7 12 15 12 8
0 15 -5 15 -12 0 -6 7 -3 15 8 13 16 16 17 25 4 7 -11 10 -11 10 -2 0 7 5 10
10 7 6 -3 10 0 10 7 0 9 3 9 10 -2 5 -8 10 -10 10 -4 0 10 15 15 90 30 13 3
28 11 32 17 6 9 8 9 8 0 0 -8 7 -10 17 -6 10 4 3 -8 -15 -25 -19 -19 -38 -29
-45 -25 -8 5 -8 2 1 -9 11 -13 7 -18 -30 -33 -51 -21 -65 -26 -98 -30 -14 -2
-26 -4 -27 -5 -2 -2 -9 -3 -15 -4 -7 -1 -12 -7 -11 -13 2 -7 4 -26 5 -42 1
-18 8 -31 16 -31 7 0 11 -3 9 -7 -3 -5 6 -9 20 -9 30 -2 34 -6 36 -32 0 -11 6
-20 12 -19 5 1 9 -3 8 -9 -1 -6 4 -11 12 -11 8 0 12 4 9 9 -3 4 0 8 5 8 6 0
11 -5 11 -11 0 -5 6 -7 13 -3 7 5 6 0 -3 -11 -11 -14 -12 -19 -2 -22 6 -3 12
-11 12 -19 0 -8 10 -14 25 -14 15 0 28 -7 32 -17 4 -10 11 -21 17 -25 6 -4 5
-13 -4 -25 -13 -16 -12 -16 8 1 14 12 22 15 22 6 0 -7 7 -10 15 -6 8 3 15 1
15 -5 0 -6 4 -8 8 -5 5 3 16 -4 25 -14 11 -13 12 -20 4 -24 -7 -2 -1 -4 13 -3
14 1 24 -3 23 -9 -1 -6 4 -11 12 -11 8 0 12 4 9 9 -8 13 6 9 21 -6 8 -7 11
-17 7 -21 -4 -5 -1 -5 6 -1 7 4 20 2 29 -6 14 -11 16 -11 8 1 -6 11 -5 12 6 5
8 -5 17 -9 22 -10 4 -1 9 -3 12 -4 3 -1 11 -3 18 -4 6 -1 11 -8 9 -15 -1 -7 2
-10 9 -5 9 5 10 2 6 -9 -5 -14 -1 -13 28 3 34 19 34 19 40 0 5 -16 10 -18 26
-10 22 12 43 4 33 -12 -4 -7 -2 -8 5 -4 8 5 9 12 2 20 -7 9 -4 17 10 29 11 10
17 22 14 27 -3 6 -1 10 5 10 6 0 10 6 9 13 -4 31 2 39 22 34 16 -4 19 -3 11 5
-7 7 -7 18 1 37 14 32 26 41 44 34 7 -3 13 0 13 5 0 6 -10 9 -22 7 -21 -4 -21
-3 -6 9 10 7 15 16 11 19 -3 4 -1 7 5 7 7 0 12 -8 12 -17 0 -15 2 -16 10 -3
13 20 12 7 -2 -27 -6 -15 -11 -31 -10 -35 1 -5 -3 -8 -8 -8 -6 0 -10 -9 -10
-21 0 -11 -4 -17 -10 -14 -6 3 -7 -1 -4 -9 4 -11 0 -16 -12 -17 -11 0 -14 -3
-6 -6 9 -3 7 -12 -8 -33 -11 -15 -20 -33 -20 -38 0 -6 -6 -13 -13 -15 -9 -4
-8 -6 2 -6 11 -1 11 -4 0 -18 -10 -12 -11 -15 -1 -9 16 9 44 -12 36 -28 -3 -6
2 -2 10 8 15 18 21 15 17 -8 -1 -5 4 -4 12 2 7 6 23 10 36 7 12 -2 19 0 16 6
-4 5 -10 7 -15 4 -4 -3 -14 3 -21 12 -11 13 -11 15 -1 9 9 -5 13 -3 11 5 -3
26 1 40 10 35 5 -3 9 0 8 7 -1 38 4 47 29 47 14 0 23 4 20 9 -3 5 1 12 10 15
8 3 13 10 10 14 -3 5 1 9 9 9 11 0 12 -4 4 -14 -6 -7 -9 -13 -6 -13 3 0 1 -14
-5 -30 -8 -23 -15 -29 -28 -25 -10 3 -21 1 -25 -4 -3 -6 0 -8 8 -5 8 3 18 1
22 -5 3 -6 1 -12 -4 -12 -6 -1 -15 -2 -21 -3 -18 -2 -33 -23 -21 -31 6 -3 10
-1 9 5 -2 7 5 14 15 15 9 2 17 -1 17 -6 0 -5 -3 -9 -7 -9 -5 0 -9 -11 -9 -25
-1 -13 1 -24 5 -23 21 2 41 -3 37 -10 -3 -5 1 -9 9 -9 8 0 14 3 13 6 -2 19 4
28 17 28 11 0 12 -4 3 -14 -6 -7 -8 -16 -4 -20 3 -3 6 -1 6 5 0 7 5 12 11 12
5 0 7 -5 3 -11 -3 -6 5 -3 19 6 15 9 31 14 36 10 6 -3 19 -2 28 3 10 6 26 6
41 1 15 -6 21 -5 17 1 -3 6 -13 10 -21 10 -9 0 -14 5 -12 11 2 6 6 9 10 7 3
-2 15 5 25 15 11 9 23 14 28 10 4 -5 5 -2 1 5 -6 11 -11 11 -24 0 -11 -9 -10
-5 3 13 11 15 23 25 28 22 4 -2 7 1 7 8 0 6 8 9 20 6 11 -3 20 -1 20 5 0 5 5
6 10 3 6 -3 10 1 10 9 0 8 9 20 20 26 11 6 22 26 26 48 7 40 22 65 34 57 4 -3
8 6 8 20 0 13 7 31 16 40 9 9 16 12 16 5 0 -6 5 -8 12 -4 8 5 9 2 5 -9 -3 -10
-2 -17 4 -17 6 0 3 -7 -5 -16 -9 -8 -16 -22 -16 -29 0 -8 -8 -20 -19 -27 -10
-7 -19 -17 -20 -23 -4 -27 -13 -45 -22 -40 -5 3 -6 -1 -3 -9 6 -15 -11 -22
-39 -17 -5 1 -6 -3 -2 -9 3 -6 11 -7 17 -4 7 5 9 1 5 -9 -4 -10 -1 -17 6 -17
8 0 6 -4 -3 -10 -8 -5 -11 -10 -6 -10 5 0 3 -7 -4 -15 -7 -8 -9 -15 -5 -15 5
0 -10 -13 -32 -29 -35 -26 -87 -107 -95 -151 -2 -8 -9 -21 -16 -28 -7 -8 -10
-18 -7 -23 4 -5 2 -9 -3 -9 -6 0 -29 -16 -52 -35 -23 -19 -38 -35 -34 -35 4 0
1 -6 -8 -12 -23 -19 -30 -48 -13 -48 8 0 15 -7 15 -16 0 -9 -5 -12 -12 -8 -10
5 -10 4 -1 -6 10 -11 10 -17 0 -28 -9 -12 -9 -16 1 -19 6 -3 10 -9 7 -13 -3
-5 2 -13 12 -19 15 -7 18 -5 19 15 1 13 -1 22 -5 19 -4 -2 -8 2 -8 10 0 8 5
11 10 8 7 -4 8 1 3 13 -5 12 -4 16 3 9 5 -5 11 -17 13 -25 2 -8 9 -21 16 -28
7 -8 10 -18 7 -23 -4 -5 -1 -9 5 -9 7 0 9 9 5 23 -4 12 -3 17 2 11 4 -7 17
-13 28 -16 13 -2 19 -10 17 -23 -2 -18 -2 -19 8 -2 14 22 34 22 26 0 -6 -16
-5 -16 8 0 14 18 33 7 21 -12 -3 -5 -1 -13 5 -16 6 -4 9 -1 8 7 -2 7 8 14 21
16 17 3 22 0 18 -10 -3 -8 1 -15 9 -15 7 0 11 4 8 9 -9 15 17 8 34 -9 16 -16
17 -15 20 5 2 13 8 20 14 16 8 -5 9 -1 5 10 -8 20 15 60 29 48 4 -4 3 0 -4 9
-10 13 -9 19 2 29 9 6 20 9 25 6 5 -4 13 -2 16 4 4 6 1 9 -6 8 -6 -2 -12 9
-13 25 -1 15 2 27 7 27 5 0 4 7 -3 15 -7 9 -8 15 -2 15 12 0 24 -29 17 -41 -4
-5 1 -6 9 -3 11 4 14 0 11 -13 -2 -12 2 -20 10 -20 8 0 13 3 11 6 -2 3 2 12
10 19 12 11 13 9 11 -10 -1 -13 -9 -26 -17 -30 -11 -5 -10 -7 5 -7 17 -1 17
-3 5 -11 -11 -7 -11 -10 -2 -10 7 0 10 -4 7 -10 -3 -5 -1 -10 6 -10 9 0 9 -4
-1 -15 -10 -12 -8 -14 9 -10 13 2 25 -3 31 -15 6 -12 16 -17 26 -13 8 3 13 8
10 11 -3 2 2 18 10 34 9 17 11 27 5 24 -6 -4 -12 0 -12 8 -3 34 -17 63 -46 94
l-25 27 28 22 c16 12 25 25 21 29 -4 4 0 18 8 31 12 17 13 28 5 42 -7 14 -7
22 0 26 6 4 8 10 5 15 -3 4 2 11 11 14 8 3 13 10 9 16 -3 5 -1 19 6 31 9 18
13 19 21 8 7 -10 8 -8 3 8 -3 12 -1 24 5 28 5 3 10 -1 10 -10 0 -9 7 -23 15
-32 10 -9 14 -26 11 -44 -3 -18 0 -29 7 -29 7 0 6 -5 -3 -10 -12 -8 -12 -10
-1 -10 11 0 11 -3 0 -17 -12 -14 -12 -16 0 -8 11 6 13 4 8 -8 -4 -12 -2 -14
11 -10 15 6 16 5 2 -13 -8 -10 -10 -16 -6 -12 13 11 39 -29 30 -45 -4 -6 -4
-9 1 -5 11 10 38 -29 30 -42 -3 -6 1 -7 9 -4 9 3 22 -1 31 -9 18 -18 20 -31 3
-21 -6 4 -8 3 -5 -3 3 -5 20 -9 36 -8 17 1 28 -2 25 -7 -3 -4 -1 -8 4 -8 5 0
9 -8 9 -17 0 -62 2 -64 34 -59 25 4 30 2 25 -12 -4 -10 3 -6 15 8 11 14 18 19
14 13 -7 -14 7 -18 19 -6 3 4 16 8 28 10 30 5 35 12 18 23 -8 6 -11 10 -6 10
16 0 -18 32 -77 72 -32 22 -61 47 -64 56 -4 9 -11 20 -16 23 -5 4 -9 18 -9 33
0 14 -4 26 -9 26 -11 0 -7 23 6 32 6 5 6 8 -1 8 -6 0 -10 10 -9 23 1 12 -2 30
-7 40 -6 12 -5 17 4 17 9 0 9 3 0 12 -8 8 -8 16 0 32 9 18 9 19 -3 9 -12 -9
-14 -5 -16 24 -1 19 -8 42 -15 51 -10 12 -10 14 0 8 7 -4 12 -2 12 5 0 8 3 9
13 0 8 -6 18 -7 22 -3 5 4 5 1 1 -6 -4 -7 -12 -9 -18 -6 -6 4 -5 -3 2 -16 10
-18 10 -21 -2 -15 -7 5 -4 -1 7 -12 13 -14 22 -16 27 -9 5 6 8 7 8 1 0 -6 8
-15 18 -22 15 -9 19 -8 19 3 0 7 -5 10 -10 7 -6 -3 -7 -2 -4 4 3 5 16 9 29 7
13 -1 27 -3 31 -3 5 -1 5 -6 2 -11 -3 -6 -1 -10 4 -10 6 0 11 4 11 10 0 5 13
16 30 25 29 15 30 15 31 -7 1 -13 1 -27 0 -31 -1 -5 3 -6 7 -3 5 3 8 18 6 33
-2 16 -1 22 2 15 3 -6 11 -9 17 -5 11 8 24 9 88 12 15 0 30 8 33 17 3 8 2 13
-2 10 -4 -2 -7 14 -7 35 0 21 3 39 7 39 5 0 8 5 8 11 0 5 -4 7 -10 4 -14 -9
-12 8 3 24 6 8 7 11 1 8 -13 -7 -13 98 1 110 4 4 5 2 1 -4 -4 -7 -3 -13 3 -13
5 0 14 7 19 16 7 13 11 14 17 4 4 -7 4 -15 -1 -19 -5 -3 -10 -13 -12 -21 -3
-12 -1 -12 9 -3 12 12 39 7 39 -9 0 -5 -4 -7 -9 -3 -5 3 -13 1 -16 -5 -4 -6
-3 -10 2 -9 20 3 27 -2 13 -11 -11 -7 -11 -10 -2 -10 7 0 10 -4 7 -10 -3 -5
-1 -10 6 -10 8 0 9 -3 0 -13 -6 -8 -8 -17 -4 -21 11 -11 12 -36 1 -36 -6 0 -5
-6 2 -15 7 -8 9 -15 4 -16 -5 0 1 -4 14 -10 13 -5 21 -12 18 -17 -2 -4 4 -8
15 -8 10 0 19 4 19 8 0 4 10 3 23 -1 12 -5 21 -14 19 -21 -1 -6 3 -8 9 -5 8 5
8 10 0 18 -18 18 -12 28 10 16 16 -8 20 -8 14 1 -4 6 -8 34 -10 61 -3 50 2 61
10 20 2 -11 7 -26 11 -33 4 -7 3 -8 -4 -4 -18 11 -14 -11 6 -30 9 -10 17 -21
17 -25 0 -4 3 -10 7 -14 9 -9 5 16 -5 33 -5 6 -3 13 2 13 37 5 52 7 59 9 4 1
12 2 17 1 6 -1 1 6 -10 15 l-20 17 20 -8 c11 -4 28 -8 38 -9 9 0 17 -5 17 -11
0 -5 4 -3 9 5 12 17 4 33 -11 24 -6 -4 -8 -2 -4 4 10 16 -14 26 -27 12 -9 -10
-9 -11 3 -5 11 6 12 5 5 -3 -6 -6 -21 -9 -34 -5 -17 4 -19 8 -9 14 11 7 11 9
-1 9 -7 0 -11 6 -8 14 3 8 3 17 -1 20 -7 8 -12 31 -14 74 -1 17 -4 32 -7 32
-4 0 -6 18 -6 40 0 23 3 36 9 30 4 -4 9 -20 9 -34 0 -14 3 -23 8 -21 4 3 14
-4 22 -15 7 -11 17 -17 21 -12 4 4 7 3 6 -3 -5 -25 1 -56 10 -50 6 4 7 -1 3
-11 -5 -13 -3 -15 7 -9 10 6 12 4 7 -8 -3 -9 -2 -17 3 -19 5 -2 11 -12 13 -23
6 -32 18 -55 29 -55 5 0 6 5 2 11 -4 8 0 8 15 0 11 -7 21 -8 21 -4 0 13 58 32
81 28 11 -2 17 0 14 5 -3 5 5 14 17 21 19 9 21 9 11 -2 -7 -7 -13 -18 -13 -24
0 -5 5 -2 11 8 6 9 14 15 20 12 5 -3 6 0 3 8 -3 8 2 20 11 27 8 7 15 11 16 9
0 -2 2 -12 4 -22 2 -11 6 -22 10 -25 3 -4 4 6 1 21 -5 31 9 44 30 26 12 -10
13 -9 8 7 -4 10 -3 16 1 12 5 -5 16 6 26 22 11 17 26 30 34 30 8 0 15 5 15 11
0 5 5 7 10 4 6 -3 10 -1 10 5 0 6 11 4 28 -6 18 -11 21 -11 10 -1 -23 18 -23
28 -1 20 11 -5 14 -3 8 6 -6 10 -3 11 14 2 16 -9 19 -9 16 1 -7 17 41 68 63
68 15 0 15 2 2 10 -13 8 -13 10 1 10 9 0 19 7 23 15 3 8 15 15 26 15 12 0 18
5 15 10 -5 9 1 12 21 9 4 0 11 5 15 13 7 10 9 10 9 1 0 -7 5 -13 12 -13 6 0 9
3 5 6 -7 8 17 34 31 34 6 0 9 8 7 18 -4 25 15 45 30 32 10 -8 15 -8 21 1 4 7
3 9 -3 6 -6 -4 -17 1 -24 10 -10 12 -10 15 -1 9 8 -5 15 2 22 18 5 15 13 26
17 25 28 -5 42 2 36 18 -4 11 -3 14 5 9 7 -4 12 -2 12 4 0 6 5 8 12 4 6 -4 8
-3 4 4 -3 5 -3 12 1 15 5 2 2 2 -4 1 -21 -5 -15 14 9 30 12 9 18 16 12 16 -6
0 -11 7 -11 14 0 8 3 15 6 14 3 0 9 1 14 2 19 6 33 5 39 -5 5 -6 8 -3 8 8 0
10 8 17 20 17 15 0 20 7 20 25 0 18 -5 25 -19 25 -27 0 -34 15 -16 30 9 8 15
8 15 2 0 -6 -6 -12 -12 -15 -7 -2 0 -4 16 -4 16 0 23 3 16 7 -7 4 4 15 30 29
23 12 38 16 34 9 -5 -10 -4 -10 6 -1 21 19 3 30 -42 26 -24 -3 -61 -5 -83 -6
-22 -1 -46 -6 -54 -11 -10 -7 -12 -6 -6 4 6 10 4 12 -9 7 -13 -5 -17 -3 -13 7
3 7 1 18 -4 23 -11 11 -59 5 -59 -8 0 -5 -7 -6 -15 -3 -8 4 -15 2 -15 -3 0 -5
-20 -9 -45 -8 -25 1 -45 -1 -45 -4 0 -4 -9 -8 -20 -9 -44 -4 -50 -6 -50 -15 0
-6 -3 -8 -6 -5 -3 3 -21 2 -41 -4 -61 -17 -77 -20 -128 -23 -27 -2 -51 -5 -52
-6 -2 -1 -13 -2 -25 -2 -13 -1 -25 -4 -28 -8 -3 -4 -18 -10 -34 -13 -16 -3
-52 -16 -80 -30 -28 -13 -68 -28 -88 -31 -21 -4 -38 -11 -38 -16 0 -5 -6 -6
-13 -3 -7 2 -22 -5 -34 -16 -13 -12 -24 -16 -28 -10 -4 6 -12 4 -21 -5 -9 -8
-20 -13 -25 -10 -5 4 -15 3 -21 -2 -15 -8 -35 -14 -60 -16 -9 -1 -15 -5 -12
-9 2 -4 -4 -7 -13 -7 -25 0 -51 -6 -59 -14 -4 -4 -19 -7 -32 -7 -28 0 -224
-50 -232 -59 -3 -3 -18 -7 -35 -8 -16 -1 -49 -4 -73 -6 -23 -2 -45 -1 -48 4
-2 5 -15 4 -28 -1 -13 -5 -27 -6 -31 -2 -3 4 -88 8 -188 9 -177 2 -267 14
-267 36 0 6 -3 8 -6 5 -3 -4 -24 2 -47 12 -23 10 -45 16 -49 14 -4 -3 -8 -1
-8 3 0 5 -13 10 -29 11 -16 1 -49 11 -73 22 -23 11 -51 20 -60 20 -10 0 -18 5
-18 10 0 6 -8 10 -18 10 -10 0 -22 3 -26 8 -4 4 -11 7 -14 7 -17 1 -125 61
-129 73 -3 6 -10 12 -17 13 -6 0 -33 32 -61 71 -27 39 -59 76 -70 82 -11 6
-22 13 -25 16 -10 10 -53 12 -59 2 -3 -5 -15 -12 -27 -16 -16 -5 -32 4 -67 39
-26 25 -47 43 -47 41 0 -3 -18 12 -40 34 -22 22 -40 43 -40 49 0 5 -7 12 -16
15 -8 3 -12 10 -9 16 3 5 -1 10 -10 10 -11 0 -15 5 -11 15 3 10 -1 15 -11 15
-9 0 -14 3 -10 6 3 3 -2 14 -11 23 -32 33 -57 67 -60 82 -2 8 -8 16 -13 17 -5
2 -9 12 -9 22 0 10 -4 22 -10 25 -5 3 -10 15 -10 26 0 24 -17 25 -25 0z m210
-413 c4 4 6 1 3 -7 -5 -16 -46 -22 -55 -8 -8 13 19 28 33 17 6 -6 14 -6 19 -2z
m-296 -95 c14 -9 21 -11 17 -5 -11 18 5 14 27 -5 11 -10 17 -12 13 -5 -4 6 -2
12 3 12 6 0 11 -7 11 -15 0 -8 5 -15 11 -15 5 0 8 4 4 9 -7 12 35 5 47 -7 5
-5 -19 -9 -56 -10 -37 0 -66 4 -66 9 0 5 -5 9 -11 9 -5 0 -7 -4 -4 -10 3 -6
-1 -7 -10 -4 -11 5 -13 10 -5 19 8 10 8 15 -1 21 -7 4 -9 3 -6 -2 3 -6 -3 -15
-13 -22 -12 -7 -21 -8 -25 -2 -4 6 -11 7 -17 4 -7 -4 -8 -2 -4 5 4 6 12 9 17
6 5 -4 12 1 15 9 8 20 24 20 53 -1z m171 -33 c0 -5 -2 -10 -4 -10 -3 0 -8 5
-11 10 -3 6 -1 10 4 10 6 0 11 -4 11 -10z m-75 -140 c-3 -5 -12 -10 -18 -10
-7 0 -6 4 3 10 19 12 23 12 15 0z m1613 -285 c-2 -17 -7 -24 -16 -20 -8 3 -10
0 -5 -7 12 -21 10 -48 -4 -48 -8 0 -12 -4 -9 -9 9 -14 -22 -21 -33 -7 -7 9 -7
16 2 25 6 7 8 12 2 11 -20 -4 -35 0 -35 11 0 5 6 7 13 3 8 -5 8 -3 -2 9 -7 9
-17 14 -22 11 -5 -3 -9 0 -9 6 0 8 7 9 18 5 31 -12 64 -16 58 -6 -3 5 4 11 15
14 12 3 18 10 14 16 -3 6 -1 11 4 11 6 0 10 -11 9 -25z m-1563 -15 c-3 -4 0
-10 7 -12 7 -3 9 -12 5 -22 -4 -11 -13 -16 -22 -12 -8 3 -14 0 -12 -7 1 -7 -4
-11 -10 -9 -7 1 -13 -2 -13 -7 0 -5 -12 -8 -26 -8 -15 0 -21 3 -14 7 8 5 7 9
-5 14 -9 3 -22 3 -28 -1 -8 -5 -8 -2 0 9 7 8 9 19 5 23 -4 5 -1 5 7 0 7 -4 16
-3 20 2 9 14 74 42 83 37 5 -3 6 -9 3 -14z m422 5 c0 -8 -4 -15 -9 -15 -4 0
-8 -6 -8 -14 0 -26 -25 -37 -46 -20 -18 15 -18 15 3 11 20 -4 21 -3 12 14 -7
14 -6 20 3 23 21 7 43 14 44 15 0 1 1 -6 1 -14z m1880 -59 c0 -8 -6 -12 -15
-9 -11 5 -11 7 0 14 7 5 13 9 14 9 0 0 1 -6 1 -14z m-2415 -20 c7 4 8 2 4 -5
-9 -14 -36 3 -36 23 0 6 5 3 11 -7 6 -9 15 -14 21 -11z m484 9 c18 -14 16 -17
-16 -19 -17 -2 -31 14 -24 26 7 12 18 10 40 -7z m110 -27 c-1 -17 -7 -33 -14
-36 -6 -2 -8 -10 -5 -18 3 -8 0 -14 -7 -14 -6 0 -8 -5 -5 -10 3 -6 -1 -13 -9
-16 -9 -3 -14 -10 -11 -14 3 -4 -2 -13 -10 -20 -7 -6 -12 -17 -9 -24 3 -8 -2
-16 -10 -19 -9 -4 -16 -2 -16 3 0 6 5 10 11 10 8 0 8 4 0 14 -10 11 -8 16 9
21 11 3 18 11 15 16 -4 5 -14 5 -25 -1 -15 -8 -18 -19 -15 -50 3 -35 0 -42
-23 -56 -15 -8 -19 -13 -10 -10 12 3 15 1 12 -9 -3 -8 -13 -11 -21 -8 -11 4
-14 2 -9 -5 5 -8 2 -10 -8 -6 -18 7 -21 20 -6 29 6 4 8 10 5 14 -2 5 5 17 18
27 l22 19 -20 -25 -20 -25 23 19 c13 12 19 23 14 28 -10 10 8 58 21 58 5 0 6
4 3 9 -3 5 1 14 9 21 8 7 12 16 9 21 -3 5 0 8 8 7 7 -2 12 4 10 12 -3 11 2 9
18 -5 18 -16 20 -16 14 -2 -4 11 0 19 10 23 9 4 16 14 15 23 -2 20 0 31 5 31
2 0 3 -14 2 -32z m-133 -1 c4 3 7 1 7 -5 0 -6 -5 -14 -10 -17 -14 -8 -42 14
-34 27 4 5 11 5 18 -1 7 -6 16 -8 19 -4z m117 -1 c0 -2 -7 -7 -16 -10 -8 -3
-12 -2 -9 4 6 10 25 14 25 6z m-147 -75 c-14 -20 -29 -35 -34 -34 -4 2 -5 -5
-2 -14 4 -10 2 -14 -4 -10 -7 5 -9 -1 -5 -15 5 -20 3 -21 -10 -11 -12 11 -14
9 -14 -10 1 -18 -4 -22 -29 -22 -24 0 -29 4 -27 20 2 11 14 30 27 41 13 12 21
26 17 30 -4 5 1 3 10 -4 14 -11 16 -10 11 7 -4 15 -1 21 11 21 9 0 16 -5 16
-11 0 -5 5 -7 11 -3 8 5 7 10 -4 16 -13 7 -14 13 -5 33 9 20 14 22 33 13 l23
-10 -25 -37z m1720 39 c-3 -11 -7 -20 -8 -20 -1 0 -5 9 -8 20 -3 12 0 20 8 20
8 0 11 -8 8 -20z m-197 -37 c-2 -9 -9 -19 -17 -21 -11 -3 -11 -1 1 7 8 6 11
11 7 11 -5 0 -5 5 -2 10 9 15 14 12 11 -7z m206 -69 c-2 -13 1 -30 7 -38 15
-17 1 -28 -19 -15 -13 7 -13 9 0 9 12 0 13 2 1 9 -7 5 -11 15 -9 22 3 8 1 21
-3 31 -7 12 -5 15 10 11 13 -3 17 -11 13 -29z m-1406 2 c0 -14 -5 -21 -9 -17
-4 4 -5 15 -1 24 9 24 12 21 10 -7z m44 -6 c0 -5 -5 -10 -11 -10 -5 0 -7 5 -4
10 3 6 8 10 11 10 2 0 4 -4 4 -10z m1132 -19 c-8 -4 -13 -11 -12 -15 1 -4 -1
-12 -4 -19 -3 -9 -1 26 3 41 1 1 7 2 14 2 9 0 9 -2 -1 -9z m-1198 -29 c3 -5
-1 -9 -9 -9 -8 0 -12 4 -9 9 3 4 7 8 9 8 2 0 6 -4 9 -8z m1186 -26 c0 -3 -4
-8 -10 -11 -5 -3 -10 -1 -10 4 0 6 5 11 10 11 6 0 10 -2 10 -4z m-1069 -68
c-4 -13 -6 -30 -4 -38 4 -12 3 -12 -5 -2 -10 15 -4 62 9 62 5 0 5 -10 0 -22z
m29 -12 c0 -3 -4 -8 -10 -11 -5 -3 -10 -1 -10 4 0 6 5 11 10 11 6 0 10 -2 10
-4z m323 -104 c3 -29 2 -51 -1 -48 -3 3 -6 16 -8 28 -1 13 -3 28 -4 33 -4 16
0 49 4 44 2 -2 6 -28 9 -57z"/>
<path d="M621 2024 c0 -11 3 -14 6 -6 3 7 2 16 -1 19 -3 4 -6 -2 -5 -13z"/>
<path d="M562 2001 c-7 -4 -4 -11 9 -20 12 -7 18 -8 14 -2 -3 6 1 11 9 11 9 0
16 4 16 8 0 10 -33 13 -48 3z"/>
<path d="M1050 1875 c-13 -14 -18 -25 -12 -25 7 0 12 6 12 13 0 8 4 7 10 -3 7
-11 10 -11 10 -2 0 7 4 11 9 8 9 -6 9 19 0 29 -3 3 -16 -6 -29 -20z"/>
<path d="M954 1902 c3 -5 0 -13 -6 -15 -9 -4 -10 -6 -1 -6 17 -1 25 16 12 25
-7 4 -9 3 -5 -4z"/>
<path d="M379 2773 c-12 -16 -12 -17 2 -6 9 7 20 9 24 5 5 -4 5 -1 1 6 -9 16
-11 15 -27 -5z"/>
<path d="M453 2741 c0 -11 5 -18 9 -15 4 3 5 11 1 19 -7 21 -12 19 -10 -4z"/>
<path d="M336 2742 c-3 -5 1 -9 9 -9 8 0 12 4 9 9 -3 4 -7 8 -9 8 -2 0 -6 -4
-9 -8z"/>
<path d="M3875 2440 c3 -5 8 -10 11 -10 2 0 4 5 4 10 0 6 -5 10 -11 10 -5 0
-7 -4 -4 -10z"/>
<path d="M3826 2362 c-3 -5 1 -9 9 -9 8 0 12 4 9 9 -3 4 -7 8 -9 8 -2 0 -6 -4
-9 -8z"/>
<path d="M3765 2340 c3 -5 8 -10 11 -10 2 0 4 5 4 10 0 6 -5 10 -11 10 -5 0
-7 -4 -4 -10z"/>
<path d="M3735 2240 c3 -5 8 -10 11 -10 2 0 4 5 4 10 0 6 -5 10 -11 10 -5 0
-7 -4 -4 -10z"/>
<path d="M3663 2205 c0 -8 4 -12 9 -9 5 3 6 10 3 15 -9 13 -12 11 -12 -6z"/>
<path d="M3695 2209 c-4 -6 -5 -12 -2 -15 2 -3 7 2 10 11 7 17 1 20 -8 4z"/>
<path d="M513 2185 c0 -8 4 -12 9 -9 5 3 6 10 3 15 -9 13 -12 11 -12 -6z"/>
<path d="M475 2171 c-3 -5 -2 -12 3 -15 5 -3 9 1 9 9 0 17 -3 19 -12 6z"/>
<path d="M3615 2140 c3 -5 8 -10 11 -10 2 0 4 5 4 10 0 6 -5 10 -11 10 -5 0
-7 -4 -4 -10z"/>
<path d="M314 2122 c4 -3 14 -7 22 -8 9 -1 13 0 10 4 -4 3 -14 7 -22 8 -9 1
-13 0 -10 -4z"/>
<path d="M3495 2029 c-4 -6 -5 -12 -2 -15 2 -3 7 2 10 11 7 17 1 20 -8 4z"/>
<path d="M3415 1979 c-3 -4 2 -6 10 -5 21 3 28 13 10 13 -9 0 -18 -4 -20 -8z"/>
<path d="M3385 1951 c-3 -5 0 -13 6 -17 7 -4 9 -3 5 4 -3 5 0 13 6 15 9 4 10
6 1 6 -6 1 -14 -3 -18 -8z"/>
<path d="M2816 1879 c3 -5 9 -7 14 -4 5 3 13 -3 19 -12 6 -10 11 -13 11 -6 0
13 -17 26 -38 29 -6 1 -10 -2 -6 -7z"/>
<path d="M3280 1880 c-9 -6 -10 -10 -3 -10 6 0 15 5 18 10 8 12 4 12 -15 0z"/>
<path d="M2525 1830 c-3 -6 1 -7 9 -4 18 7 21 14 7 14 -6 0 -13 -4 -16 -10z"/>
<path d="M2855 1800 c-3 -6 1 -7 9 -4 18 7 21 14 7 14 -6 0 -13 -4 -16 -10z"/>
<path d="M2871 1787 c2 -1 12 -9 22 -16 15 -12 17 -12 11 3 -3 9 -13 16 -22
16 -8 0 -13 -1 -11 -3z"/>
<path d="M3030 1740 c0 -5 5 -10 11 -10 5 0 7 5 4 10 -3 6 -8 10 -11 10 -2 0
-4 -4 -4 -10z"/>
<path d="M1270 1720 l-25 -8 28 -1 c15 -1 27 4 27 9 0 6 -1 10 -2 9 -2 -1 -14
-5 -28 -9z"/>
<path d="M2994 1716 c1 -8 5 -18 8 -22 4 -3 5 1 4 10 -1 8 -5 18 -8 22 -4 3
-5 -1 -4 -10z"/>
<path d="M795 1711 c-3 -5 -2 -12 3 -15 5 -3 9 1 9 9 0 17 -3 19 -12 6z"/>
<path d="M2866 1702 c-2 -4 4 -8 14 -8 10 0 16 4 14 8 -3 4 -9 8 -14 8 -5 0
-11 -4 -14 -8z"/>
<path d="M2946 1698 c3 -5 10 -6 15 -3 13 9 11 12 -6 12 -8 0 -12 -4 -9 -9z"/>
<path d="M2797 1689 c7 -7 15 -10 18 -7 3 3 -2 9 -12 12 -14 6 -15 5 -6 -5z"/>
<path d="M855 1680 c-2 -3 9 -6 25 -6 17 0 27 2 25 5 -8 7 -45 9 -50 1z"/>
<path d="M997 1655 c-4 -8 -3 -16 1 -19 4 -3 9 4 9 15 2 23 -3 25 -10 4z"/>
<path d="M1040 1635 c-11 -13 -11 -18 0 -28 10 -9 11 -9 6 1 -4 7 -2 19 4 27
7 8 10 15 7 15 -2 0 -10 -7 -17 -15z"/>
<path d="M2655 1640 c3 -5 8 -10 11 -10 2 0 4 5 4 10 0 6 -5 10 -11 10 -5 0
-7 -4 -4 -10z"/>
<path d="M2456 1618 c3 -5 10 -6 15 -3 13 9 11 12 -6 12 -8 0 -12 -4 -9 -9z"/>
<path d="M2490 1626 c0 -2 7 -7 16 -10 8 -3 12 -2 9 4 -6 10 -25 14 -25 6z"/>
<path d="M1270 1559 c0 -5 5 -7 10 -4 6 3 10 8 10 11 0 2 -4 4 -10 4 -5 0 -10
-5 -10 -11z"/>
<path d="M1380 1560 c-9 -6 -10 -10 -3 -10 6 0 15 5 18 10 8 12 4 12 -15 0z"/>
<path d="M1875 1340 c-3 -5 -1 -10 4 -10 6 0 11 5 11 10 0 6 -2 10 -4 10 -3 0
-8 -4 -11 -10z"/>
<path d="M2306 1142 c-3 -5 1 -9 9 -9 8 0 12 4 9 9 -3 4 -7 8 -9 8 -2 0 -6 -4
-9 -8z"/>
</g>
</svg>
